<?xml version="1.0" encoding="utf-8"?>
<!-- Generator: Adobe Illustrator 19.0.0, SVG Export Plug-In . SVG Version: 6.00 Build 0)  -->

<svg version="1.1" id="Layer_2" xmlns="http://www.w3.org/2000/svg"
	xmlns:xlink="http://www.w3.org/1999/xlink" x="0px" y="0px"
	viewBox="0 0 24 24" style="enable-background:new 0 0 24 24;" xml:space="preserve">
	<path style="fill: #fff;" 
		d="M15.011,17A7.5,7.5,0,1,1,22.5,9.51,7.509,7.509,0,0,1,15.011,17Zm0-14A6.5,6.5,0,1,0,21.5,9.51,6.518,6.518,0,0,0,15.011,3Z"></path>
	<path  style="fill: #fff;" 
		d="M5.5,22H2a.5.5,0,0,1-.5-.5V2.5A.5.5,0,0,1,2,2H5.5a.5.5,0,0,1,.5.5v19A.5.5,0,0,1,5.5,22Zm-3-1H5V3H2.5Z"></path>
</svg>