<svg width="35" height="28" viewBox="0 0 35 28" fill="none" xmlns="http://www.w3.org/2000/svg">
<path d="M21.6552 25.3534C21.5172 25.4501 21.5487 25.6638 21.7117 25.7065C22.4423 25.898 23.2092 26 23.9999 26C28.9704 26 32.9999 21.9706 32.9999 17C32.9999 13.3925 30.8774 10.2808 27.8131 8.84537C27.6604 8.77384 27.4993 8.91796 27.5436 9.08068C27.8861 10.3405 28.0689 11.6662 28.0689 13.0345C28.0689 18.1305 25.5334 22.6344 21.6552 25.3534Z" fill="#FECE2F"/>
<path d="M26.069 13.0345C26.069 20.2332 20.2332 26.069 13.0345 26.069C6.66804 26.069 5.42 26.6452 1.86858 27.9601C1.41836 28.1268 1.00508 27.5848 1.26532 27.1813C2.37388 25.4628 3.9579 22.5395 2.89655 21.2279C1.34399 19.3092 0 16.1386 0 13.0345C0 5.83574 5.83574 0 13.0345 0C20.2332 0 26.069 5.83574 26.069 13.0345Z" fill="#6C71D3"/>
<path d="M12.5611 7.01428C12.7286 6.58206 13.3401 6.58206 13.5076 7.01428L14.7222 10.148C14.8662 10.5196 15.2144 10.7726 15.6124 10.7948L18.9681 10.9815C19.4309 11.0073 19.6199 11.5889 19.2606 11.8818L16.6555 14.0053C16.3466 14.2571 16.2136 14.6664 16.3155 15.0517L17.1749 18.3009C17.2934 18.749 16.7987 19.1085 16.4091 18.8573L13.5845 17.0359C13.2495 16.8199 12.8192 16.8199 12.4842 17.0359L9.65962 18.8573C9.27004 19.1085 8.77528 18.749 8.89381 18.3009L9.75317 15.0517C9.85509 14.6664 9.72209 14.2571 9.41315 14.0053L6.80811 11.8818C6.44882 11.5889 6.6378 11.0073 7.10063 10.9815L10.4563 10.7948C10.8543 10.7726 11.2024 10.5196 11.3465 10.148L12.5611 7.01428Z" fill="white"/>
</svg>
